<?xml version="1.0" standalone="no"?>
<!DOCTYPE svg PUBLIC "-//W3C//DTD SVG 20010904//EN"
 "http://www.w3.org/TR/2001/REC-SVG-20010904/DTD/svg10.dtd">
<svg version="1.0" xmlns="http://www.w3.org/2000/svg"
 width="600.000000pt" height="600.000000pt" viewBox="0 0 600.000000 600.000000"
 preserveAspectRatio="xMidYMid meet">
<metadata>
Created by potrace 1.11, written by Peter Selinger 2001-2013
</metadata>
<g transform="translate(0.000000,600.000000) scale(0.100000,-0.100000)"
fill="#000000" stroke="none">
<path d="M0 3000 l0 -3000 3000 0 3000 0 0 3000 0 3000 -3000 0 -3000 0 0
-3000z m5425 1923 c107 -113 165 -181 165 -194 0 -10 108 -143 188 -231 56
-62 59 -68 39 -68 -13 0 -80 75 -162 181 -22 29 -61 75 -87 104 -27 29 -48 57
-48 63 0 6 -36 49 -81 96 l-81 86 -27 -19 c-14 -11 -34 -27 -43 -38 -10 -10
-48 -49 -86 -88 -38 -38 -77 -85 -87 -102 -11 -18 -27 -33 -36 -33 -9 0 -24
-9 -34 -20 -15 -17 -31 -20 -103 -20 -68 0 -94 -4 -130 -22 -24 -13 -46 -30
-49 -38 -2 -8 -8 -23 -13 -32 -5 -9 -14 -54 -20 -100 -5 -46 -15 -108 -20
-138 -5 -30 -12 -176 -16 -325 -4 -211 -2 -296 10 -390 22 -175 45 -305 62
-348 7 -20 14 -51 14 -68 0 -17 5 -39 11 -50 13 -25 35 -161 48 -304 6 -60 17
-135 26 -165 8 -30 15 -71 15 -91 0 -20 4 -60 10 -90 49 -273 55 -425 28 -694
-17 -167 -31 -219 -74 -285 -42 -66 -52 -83 -63 -106 -16 -35 -148 -143 -209
-171 -56 -25 -56 -25 -266 -20 -146 4 -230 10 -271 21 -147 39 -210 46 -410
46 -187 0 -205 -2 -270 -25 -38 -14 -82 -34 -97 -45 -15 -11 -31 -20 -36 -20
-10 0 -87 -80 -95 -100 -18 -43 -68 -116 -120 -175 -66 -74 -73 -74 -106 1
-11 24 -30 54 -43 67 -23 23 -84 109 -90 128 -4 12 -111 49 -140 49 -13 0 -55
9 -93 20 -63 18 -100 20 -378 20 -242 0 -314 3 -335 14 -15 7 -47 17 -72 21
-46 7 -157 63 -180 90 -7 8 -18 15 -26 15 -47 0 -214 240 -214 307 0 14 -6 45
-14 71 -25 84 -38 184 -46 337 -4 83 -14 193 -21 245 -22 147 -19 672 4 870
16 133 18 214 14 575 -3 353 -7 429 -21 479 -24 86 -44 114 -101 141 -27 13
-80 37 -118 55 -37 17 -65 35 -62 41 4 5 1 9 -6 9 -7 0 -2 12 12 26 18 20 21
28 10 32 -8 2 -30 19 -50 36 -54 47 -119 96 -127 96 -3 0 -43 32 -88 72 -44
40 -89 79 -99 87 -15 13 -22 9 -75 -45 -31 -32 -91 -91 -132 -130 -75 -70
-100 -98 -100 -109 0 -3 -22 -38 -48 -78 -27 -40 -51 -80 -55 -90 -10 -28 -36
-32 -59 -10 -25 26 -21 41 43 138 27 42 49 80 49 85 0 19 303 310 322 310 7 0
52 -36 100 -80 48 -43 121 -102 162 -129 41 -28 78 -55 81 -61 4 -6 31 -28 60
-50 l54 -40 595 0 c343 0 614 4 638 10 107 24 224 33 498 41 597 18 745 24
758 32 7 5 243 12 525 16 454 7 517 10 552 26 86 37 236 72 365 84 67 7 87 12
95 27 5 11 43 52 83 92 39 41 72 78 72 83 0 12 102 89 119 89 7 0 55 -44 106
-97z m-76 -170 c28 -32 71 -78 95 -103 24 -25 69 -79 99 -120 31 -41 77 -101
102 -133 43 -55 54 -77 37 -77 -15 0 -98 100 -137 166 -21 36 -196 243 -239
283 -14 14 -26 28 -26 33 0 19 20 5 69 -49z m-4696 -71 l27 -28 -18 -36 c-11
-20 -46 -71 -79 -114 -65 -87 -70 -96 -139 -237 -53 -108 -67 -126 -92 -111
-30 19 -38 42 -22 66 24 39 90 171 90 182 0 6 17 34 38 63 20 28 63 87 95 131
31 44 57 87 57 96 0 23 13 20 43 -12z m4643 -44 c72 -78 158 -216 180 -289 8
-25 24 -61 37 -80 39 -57 87 -152 81 -158 -7 -7 -72 67 -80 92 -3 11 -19 38
-35 62 -16 24 -29 46 -29 50 0 18 -126 256 -160 302 -44 59 -40 71 6 21z
m-4492 -107 l28 -29 -24 -42 c-13 -23 -30 -55 -40 -72 -9 -16 -23 -37 -31 -46
-13 -15 -32 -60 -99 -234 -13 -35 -31 -35 -58 -1 -14 18 -17 30 -10 37 5 5 10
17 10 26 0 9 8 34 19 56 10 21 26 61 35 87 9 27 28 63 41 81 14 18 25 36 25
39 0 3 14 26 30 50 17 25 30 52 30 61 0 23 13 20 44 -13z"/>
<path d="M4670 4629 c-41 -11 -79 -25 -84 -30 -6 -5 -19 -9 -31 -9 -12 0 -26
-5 -32 -11 -8 -8 -162 -14 -522 -19 -280 -5 -516 -12 -523 -16 -13 -9 -198
-16 -778 -33 -162 -4 -331 -13 -375 -20 -44 -7 -108 -16 -141 -21 -34 -6 -290
-10 -570 -10 -531 0 -543 -1 -429 -39 84 -28 128 -113 145 -279 17 -152 12
-760 -7 -902 -25 -194 -29 -743 -8 -902 10 -68 21 -188 25 -268 4 -80 18 -194
30 -255 12 -60 24 -126 27 -145 3 -19 14 -47 24 -62 11 -14 19 -29 19 -32 0
-28 130 -186 153 -186 6 0 21 -10 33 -21 45 -42 135 -85 197 -94 26 -4 50 -11
53 -16 3 -5 148 -9 322 -9 287 -1 322 -2 372 -20 30 -11 69 -19 86 -20 16 0
61 -10 100 -23 55 -19 72 -29 83 -53 8 -16 33 -51 56 -79 23 -27 53 -69 67
-93 l25 -43 37 49 c20 27 36 54 36 60 0 6 32 49 70 96 63 76 79 89 153 125
163 79 147 76 407 76 229 0 238 -1 340 -29 98 -27 121 -29 326 -34 l221 -4 44
28 c24 16 53 33 63 39 24 13 119 149 135 195 31 85 61 551 43 660 -12 73 -26
167 -42 285 -6 44 -16 105 -21 135 -5 30 -16 114 -25 185 -18 165 -35 265 -47
289 -5 10 -13 42 -17 70 -5 28 -15 78 -23 111 -24 101 -46 234 -58 360 -23
235 8 720 57 889 8 28 32 71 55 98 47 56 43 57 -71 27z m-2260 -519 l0 -70
-195 0 -195 0 0 -95 0 -95 140 0 140 0 0 -70 0 -70 -140 0 -140 0 0 -125 0
-125 195 0 195 0 0 -70 0 -70 -270 0 -270 0 0 430 0 430 270 0 270 0 0 -70z
m1092 -132 l3 -203 143 203 144 202 84 0 c46 0 84 -2 84 -5 0 -2 -51 -76 -114
-163 -62 -87 -121 -170 -130 -184 -17 -26 -16 -26 139 -261 85 -129 155 -238
155 -241 0 -3 -39 -6 -87 -6 l-88 0 -114 175 c-62 97 -117 178 -122 180 -4 3
-28 -23 -53 -59 l-46 -64 0 -116 0 -116 -75 0 -75 0 0 430 0 430 75 0 75 0 2
-202z m-782 -493 c37 -19 50 -43 50 -92 -1 -91 -103 -135 -172 -74 -28 25 -33
36 -33 76 0 40 5 51 33 76 37 33 77 37 122 14z m1540 0 c37 -19 50 -43 50 -92
-1 -91 -103 -135 -172 -74 -28 25 -33 36 -33 76 0 40 5 51 33 76 37 33 77 37
122 14z m-1898 -837 c100 -46 163 -124 194 -242 19 -70 18 -247 -2 -321 -30
-117 -94 -199 -192 -247 -62 -31 -73 -33 -172 -33 -95 0 -111 3 -162 28 -130
64 -198 203 -198 405 0 186 76 339 202 403 64 33 94 39 189 35 66 -3 99 -9
141 -28z m1485 -5 c8 -21 86 -217 173 -436 l158 -398 -85 3 -86 3 -30 83 -30
82 -147 0 -148 0 -28 -82 -29 -83 -82 -3 c-46 -2 -83 1 -83 5 0 4 75 200 167
435 l168 428 33 0 c29 0 35 -5 49 -37z m-967 -668 c37 -19 50 -43 50 -92 -1
-91 -103 -135 -172 -74 -28 25 -33 36 -33 76 0 40 5 51 33 76 37 33 77 37 122
14z m1560 0 c37 -19 50 -43 50 -92 -1 -91 -103 -135 -172 -74 -28 25 -33 36
-33 76 0 40 5 51 33 76 37 33 77 37 122 14z"/>
<path d="M2113 2521 c-53 -24 -98 -86 -114 -155 -6 -30 -10 -98 -7 -158 3 -93
7 -112 33 -163 40 -78 94 -109 178 -102 78 7 136 42 169 104 66 121 56 346
-18 427 -59 63 -161 83 -241 47z"/>
<path d="M3750 2268 c-25 -77 -46 -147 -48 -154 -3 -11 17 -14 97 -14 56 0
101 2 101 4 0 11 -93 292 -98 298 -4 4 -27 -56 -52 -134z"/>
</g>
</svg>
